<svg width="80" height="98" viewBox="0 0 80 98" fill="none" xmlns="http://www.w3.org/2000/svg">
<path d="M66.3373 52.34C66.2168 40.0397 76.2992 34.1429 76.7483 33.8485C71.0817 25.4996 62.2561 24.3585 59.1123 24.225C51.601 23.4602 44.4574 28.6771 40.6445 28.6771C36.8436 28.6771 30.9599 24.3373 24.7296 24.4526C16.5431 24.574 8.99255 29.2447 4.77873 36.6285C-3.72729 51.4902 2.59947 73.5051 10.8915 85.5596C14.9425 91.4594 19.7743 98.0845 26.1161 97.8478C32.2228 97.602 34.5347 93.8691 41.9164 93.8691C49.2982 93.8691 51.3749 97.8478 57.8404 97.7264C64.4113 97.602 68.5769 91.7143 72.6008 85.7963C77.2517 78.9527 79.1687 72.3246 79.2802 71.9847C79.1355 71.9179 66.4639 67.0318 66.3373 52.34ZM54.1932 16.2463C57.56 12.1341 59.8327 6.42853 59.2118 0.738159C54.362 0.93846 48.4843 3.99154 45.006 8.09164C41.8833 11.7304 39.1524 17.5392 39.8849 23.1173C45.2984 23.5421 50.8233 20.3464 54.1932 16.2463Z" fill="white"/>
</svg>
