<svg width="175" height="38" viewBox="0 0 175 38" fill="none" xmlns="http://www.w3.org/2000/svg">
<path d="M11.7277 32.7183C8.30307 32.7183 5.71845 31.7897 3.97384 29.9324C2.25076 28.0751 1.38922 25.5591 1.38922 22.3845C1.38922 20.0953 1.76614 18.1192 2.51999 16.4563C3.27384 14.7718 4.41538 13.476 5.94461 12.569C7.49538 11.662 9.45538 11.2084 11.8246 11.2084C13.0523 11.2084 14.1615 11.2948 15.1523 11.4676C16.1646 11.6188 17.1123 11.8455 17.9954 12.1479V15.1929C16.2292 14.5451 14.2692 14.2211 12.1154 14.2211C9.46615 14.2211 7.60307 14.923 6.52615 16.3267C5.47076 17.7305 4.94307 19.7497 4.94307 22.3845C4.94307 24.7817 5.50307 26.6066 6.62307 27.8591C7.74307 29.1117 9.47692 29.738 11.8246 29.738C13.6769 29.738 15.1738 29.5221 16.3154 29.0901V23.2591H11.1138V20.9591H19.32V31.0014C18.6523 31.4333 17.6938 31.8329 16.4446 32.2C15.2169 32.5455 13.6446 32.7183 11.7277 32.7183Z" fill="black"/>
<path d="M30.4863 32.7183C27.8156 32.7183 25.7479 32.0596 24.2833 30.7422C22.8186 29.4249 22.0863 27.4056 22.0863 24.6845C22.0863 22.2225 22.7109 20.2789 23.9602 18.8535C25.2094 17.4282 27.1048 16.7155 29.6463 16.7155C31.9725 16.7155 33.7171 17.331 34.8802 18.562C36.0648 19.7714 36.6571 21.3371 36.6571 23.2591V26.1099H25.4463C25.6186 27.6 26.1571 28.6258 27.0617 29.1873C27.9663 29.7488 29.3448 30.0296 31.1971 30.0296C31.9725 30.0296 32.7694 29.954 33.5879 29.8028C34.4063 29.6516 35.1171 29.4573 35.7202 29.2197V31.8113C35.031 32.1136 34.234 32.3404 33.3294 32.4915C32.4463 32.6427 31.4986 32.7183 30.4863 32.7183ZM25.4463 23.8099H33.5556V22.7408C33.5556 21.6826 33.2648 20.862 32.6833 20.2789C32.1017 19.6742 31.1217 19.3718 29.7433 19.3718C28.1063 19.3718 26.9756 19.7282 26.351 20.4408C25.7479 21.1535 25.4463 22.2765 25.4463 23.8099Z" fill="black"/>
<path d="M45.9329 32.7183C44.296 32.7183 43.0683 32.2864 42.2499 31.4226C41.4529 30.5371 41.0545 29.3385 41.0545 27.8268V19.793H38.7929V17.0395H41.0545V13.5085L44.5437 12.4395V17.0395H48.6145L48.3883 19.793H44.5437V27.6324C44.5437 28.5179 44.7483 29.1441 45.1576 29.5113C45.5668 29.8568 46.2345 30.0296 47.1606 30.0296C47.7422 30.0296 48.356 29.9216 49.0022 29.7056V32.2C48.1622 32.5456 47.1391 32.7183 45.9329 32.7183Z" fill="black"/>
<path d="M51.6643 32.3944V11.5324H55.2828L61.8735 25.0409L68.432 11.5324H72.0505V32.3944H68.5612V17.2662L62.9397 28.7986H60.8074L55.1535 17.2662V32.3944H51.6643Z" fill="black"/>
<path d="M83.8697 32.7183C81.1989 32.7183 79.1312 32.0596 77.6666 30.7422C76.202 29.4249 75.4697 27.4056 75.4697 24.6845C75.4697 22.2225 76.0943 20.2789 77.3435 18.8535C78.5927 17.4282 80.4881 16.7155 83.0297 16.7155C85.3558 16.7155 87.1004 17.331 88.2635 18.562C89.4481 19.7714 90.0404 21.3371 90.0404 23.2591V26.1099H78.8297C79.002 27.6 79.5404 28.6258 80.445 29.1873C81.3497 29.7488 82.7281 30.0296 84.5804 30.0296C85.3558 30.0296 86.1527 29.954 86.9712 29.8028C87.7897 29.6516 88.5004 29.4573 89.1035 29.2197V31.8113C88.4143 32.1136 87.6174 32.3404 86.7127 32.4915C85.8297 32.6427 84.882 32.7183 83.8697 32.7183ZM78.8297 23.8099H86.9389V22.7408C86.9389 21.6826 86.6481 20.862 86.0666 20.2789C85.485 19.6742 84.505 19.3718 83.1266 19.3718C81.4897 19.3718 80.3589 19.7282 79.7343 20.4408C79.1312 21.1535 78.8297 22.2765 78.8297 23.8099Z" fill="black"/>
<path d="M99.8009 32.7183C98.4224 32.7183 97.2055 32.4807 96.1501 32.0056C95.0947 31.5305 94.2763 30.7422 93.6947 29.6408C93.1132 28.5394 92.8224 27.0601 92.8224 25.2028C92.8224 23.3671 93.1347 21.823 93.7594 20.5704C94.384 19.2962 95.2455 18.3352 96.344 17.6873C97.464 17.0394 98.724 16.7155 100.124 16.7155C101.05 16.7155 101.869 16.8235 102.579 17.0394C103.312 17.2554 104.012 17.5901 104.679 18.0436V10.5605H108.201V32.3944H105.196L104.97 30.8718C104.281 31.4981 103.527 31.9624 102.709 32.2648C101.89 32.5671 100.921 32.7183 99.8009 32.7183ZM100.738 30.062C102.31 30.062 103.624 29.5221 104.679 28.4422V20.7648C103.667 19.8577 102.396 19.4042 100.867 19.4042C99.3809 19.4042 98.2609 19.9009 97.507 20.8943C96.7532 21.8878 96.3763 23.3347 96.3763 25.2352C96.3763 27.0709 96.7209 28.3343 97.4101 29.0253C98.1209 29.7164 99.2301 30.062 100.738 30.062Z" fill="black"/>
<path d="M113.565 13.8324V10.9169H117.41V13.8324H113.565ZM113.856 32.3943V19.7281H111.53L111.853 17.0394H117.377V32.3943H113.856Z" fill="black"/>
<path d="M126.267 32.7183C125.298 32.7183 124.393 32.5455 123.553 32.2C122.735 31.8545 122.078 31.3361 121.582 30.6451C121.087 29.9324 120.839 29.0577 120.839 28.0211C120.839 26.5526 121.335 25.3756 122.326 24.4901C123.338 23.5831 124.889 23.1296 126.978 23.1296H131.889V22.4493C131.889 21.715 131.77 21.1319 131.533 20.7C131.318 20.2681 130.909 19.9549 130.306 19.7606C129.724 19.5662 128.862 19.469 127.721 19.469C125.912 19.469 124.221 19.739 122.649 20.2789V17.6549C123.338 17.3742 124.178 17.1474 125.169 16.9746C126.159 16.8019 127.226 16.7155 128.367 16.7155C130.607 16.7155 132.309 17.169 133.472 18.076C134.656 18.9831 135.249 20.4624 135.249 22.5141V32.3944H132.244L132.018 30.8394C131.393 31.4441 130.618 31.9084 129.692 32.2324C128.787 32.5563 127.646 32.7183 126.267 32.7183ZM127.204 30.1915C128.259 30.1915 129.175 30.0188 129.95 29.6732C130.747 29.3061 131.393 28.8202 131.889 28.2155V25.5268H127.042C126.009 25.5268 125.255 25.7319 124.781 26.1422C124.329 26.531 124.102 27.1357 124.102 27.9563C124.102 28.7554 124.372 29.3277 124.91 29.6732C125.449 30.0188 126.213 30.1915 127.204 30.1915Z" fill="black"/>
<path d="M147.276 8.52645C147.276 7.48741 148.398 6.83801 149.296 7.35753L171.85 20.4144C172.748 20.9339 172.748 22.2327 171.85 22.7522L149.296 35.809C148.398 36.3287 147.276 35.6792 147.276 34.6401V8.52645Z" fill="#0D1B1E"/>
<path d="M151.529 16.1216C151.529 15.0826 152.651 14.4332 153.549 14.9527L162.488 20.1279C163.386 20.6475 163.386 21.9463 162.488 22.4658L153.549 27.641C152.651 28.1607 151.529 27.5112 151.529 26.4721V16.1216Z" fill="#7798AB"/>
</svg>
